# xmcd
#
# Track frame offsets: 
#        150
#        14771
#        28218
#        43225
#        57989
#        70813
#        85617
#        99999
#        113319
#        128663
#        142458
#        156428
#        169448
#        183151
#        198591
#        212814
#        227266
#        240469
#        253466
#        265651
#
# Disc length: 3704 seconds
#
# Revision: 4
# Processed by: cddbd v1.5.2PL0 Copyright (c) Steve Scherf et al.
# Submitted via: ExactAudioCopy v1.0b3
#
DISCID=210e7614
DTITLE=Louis Armstrong - It's Louis Armstrong_CD10
DYEAR=2005
DGENRE=Jazz
TTITLE0=Some Day
TTITLE1=Fifty-Fifty Blues
TTITLE2=A Song Was Born
TTITLE3=Please Stop Playing Those Blues
TTITLE4=Before Long
TTITLE5=Lovely Weather We're Having
TTITLE6=Maybe It's Because
TTITLE7=I'll Keep The Lovelight Burning (In My Heart)
TTITLE8=La Vie En Rose
TTITLE9=C'est Si Bon
TTITLE10=That Lucky Old Sun
TTITLE11=Blueberry Hill
TTITLE12=A Kiss To Build A Dream On
TTITLE13=I Get Ideas (Adios Muchachos)
TTITLE14=Cold, Cold Heart
TTITLE15=Because Of You
TTITLE16=I Laughed At Love
TTITLE17=Takes Two To Tango
TTITLE18=Your Cheatin' Heart
TTITLE19=Congratulations To Someone
EXTD=
EXTT0=
EXTT1=
EXTT2=
EXTT3=
EXTT4=
EXTT5=
EXTT6=
EXTT7=
EXTT8=
EXTT9=
EXTT10=
EXTT11=
EXTT12=
EXTT13=
EXTT14=
EXTT15=
EXTT16=
EXTT17=
EXTT18=
EXTT19=
PLAYORDER=
